<?xml version="1.0" encoding="UTF-8" standalone="no"?>
<!DOCTYPE svg PUBLIC "-//W3C//DTD SVG 1.1//EN" "http://www.w3.org/Graphics/SVG/1.1/DTD/svg11.dtd">
<svg version="1.1" xmlns="http://www.w3.org/2000/svg" xmlns:xlink="http://www.w3.org/1999/xlink" preserveAspectRatio="xMidYMid meet" viewBox="0 0 640 640" width="100" height="100"><defs><path d="M535.07 129.21C540.59 129.21 545.07 133.69 545.07 139.21C545.07 158.51 545.07 206.42 545.07 225.72C545.07 231.24 540.59 235.72 535.07 235.72C447.11 235.72 193.26 235.72 105.3 235.72C99.78 235.72 95.3 231.24 95.3 225.72C95.3 206.42 95.3 158.51 95.3 139.21C95.3 133.69 99.78 129.21 105.3 129.21C193.26 129.21 447.11 129.21 535.07 129.21Z" id="cXqi71cf4"></path><path d="M144.93 181.85C144.93 188.75 139.33 194.35 132.43 194.35C125.53 194.35 119.93 188.75 119.93 181.85C119.93 174.95 125.53 169.35 132.43 169.35C139.33 169.35 144.93 174.95 144.93 181.85Z" id="f15rWwTEvN"></path><path d="M179.94 181.85C179.94 188.75 174.34 194.35 167.44 194.35C160.54 194.35 154.94 188.75 154.94 181.85C154.94 174.95 160.54 169.35 167.44 169.35C174.34 169.35 179.94 174.95 179.94 181.85Z" id="i1mm6JqF2s"></path><path d="M214.93 181.85C214.93 188.75 209.33 194.35 202.43 194.35C195.53 194.35 189.93 188.75 189.93 181.85C189.93 174.95 195.53 169.35 202.43 169.35C209.33 169.35 214.93 174.95 214.93 181.85Z" id="alAKPUSzH"></path><path d="M534.7 267.35C540.22 267.35 544.7 271.82 544.7 277.35C544.7 296.65 544.7 344.55 544.7 363.85C544.7 369.37 540.22 373.85 534.7 373.85C446.74 373.85 192.89 373.85 104.93 373.85C99.41 373.85 94.93 369.37 94.93 363.85C94.93 344.55 94.93 296.65 94.93 277.35C94.93 271.82 99.41 267.35 104.93 267.35C192.89 267.35 446.74 267.35 534.7 267.35Z" id="ggMerHx9v"></path><path d="M144.56 319.98C144.56 326.88 138.96 332.48 132.06 332.48C125.16 332.48 119.56 326.88 119.56 319.98C119.56 313.08 125.16 307.48 132.06 307.48C138.96 307.48 144.56 313.08 144.56 319.98Z" id="bDbhwV6Yx"></path><path d="M179.57 319.98C179.57 326.88 173.97 332.48 167.07 332.48C160.17 332.48 154.57 326.88 154.57 319.98C154.57 313.08 160.17 307.48 167.07 307.48C173.97 307.48 179.57 313.08 179.57 319.98Z" id="a7kkCzdy5X"></path><path d="M214.56 319.98C214.56 326.88 208.96 332.48 202.06 332.48C195.16 332.48 189.56 326.88 189.56 319.98C189.56 313.08 195.16 307.48 202.06 307.48C208.96 307.48 214.56 313.08 214.56 319.98Z" id="f46TNYIcxu"></path><path d="M535.07 404.28C540.59 404.28 545.07 408.76 545.07 414.28C545.07 433.58 545.07 481.49 545.07 500.79C545.07 506.31 540.59 510.79 535.07 510.79C447.11 510.79 193.26 510.79 105.3 510.79C99.78 510.79 95.3 506.31 95.3 500.79C95.3 481.49 95.3 433.58 95.3 414.28C95.3 408.76 99.78 404.28 105.3 404.28C193.26 404.28 447.11 404.28 535.07 404.28Z" id="dKAzKl2zC"></path><path d="M144.93 456.91C144.93 463.81 139.33 469.41 132.43 469.41C125.53 469.41 119.93 463.81 119.93 456.91C119.93 450.01 125.53 444.41 132.43 444.41C139.33 444.41 144.93 450.01 144.93 456.91Z" id="c1T0wY8bY3"></path><path d="M179.94 456.91C179.94 463.81 174.34 469.41 167.44 469.41C160.54 469.41 154.94 463.81 154.94 456.91C154.94 450.01 160.54 444.41 167.44 444.41C174.34 444.41 179.94 450.01 179.94 456.91Z" id="b1jWHF6KfY"></path><path d="M214.93 456.91C214.93 463.81 209.33 469.41 202.43 469.41C195.53 469.41 189.93 463.81 189.93 456.91C189.93 450.01 195.53 444.41 202.43 444.41C209.33 444.41 214.93 450.01 214.93 456.91Z" id="c29jb41SR"></path></defs><g><g><g><g><use xlink:href="#cXqi71cf4" opacity="1" fill-opacity="0" stroke="#000000" stroke-width="5" stroke-opacity="1"></use></g></g><g><use xlink:href="#f15rWwTEvN" opacity="1" fill="#000000" fill-opacity="1"></use></g><g><use xlink:href="#i1mm6JqF2s" opacity="1" fill="#000000" fill-opacity="1"></use></g><g><use xlink:href="#alAKPUSzH" opacity="1" fill="#000000" fill-opacity="1"></use></g><g><g><use xlink:href="#ggMerHx9v" opacity="1" fill-opacity="0" stroke="#000000" stroke-width="5" stroke-opacity="1"></use></g></g><g><use xlink:href="#bDbhwV6Yx" opacity="1" fill="#000000" fill-opacity="1"></use></g><g><use xlink:href="#a7kkCzdy5X" opacity="1" fill="#000000" fill-opacity="1"></use></g><g><use xlink:href="#f46TNYIcxu" opacity="1" fill="#000000" fill-opacity="1"></use></g><g><g><use xlink:href="#dKAzKl2zC" opacity="1" fill-opacity="0" stroke="#000000" stroke-width="5" stroke-opacity="1"></use></g></g><g><use xlink:href="#c1T0wY8bY3" opacity="1" fill="#000000" fill-opacity="1"></use></g><g><use xlink:href="#b1jWHF6KfY" opacity="1" fill="#000000" fill-opacity="1"></use></g><g><use xlink:href="#c29jb41SR" opacity="1" fill="#000000" fill-opacity="1"></use></g></g></g></svg>